<svg xmlns="http://www.w3.org/2000/svg" viewBox="0 0 800 620"><defs><linearGradient id="b" x1="0" y1="0" x2="1" y2="1"><stop stop-color="#f4faea"/><stop offset="1" stop-color="#fff1f6"/></linearGradient><linearGradient id="v" x1="0" y1="0" x2="1" y2="1"><stop stop-color="#f0528c"/><stop offset="1" stop-color="#c51f60"/></linearGradient></defs><rect width="800" height="620" rx="40" fill="url(#b)"/><path d="M90 480h620" stroke="#d7e6c6" stroke-width="12"/><g transform="translate(120 170)"><path d="M45 120h335q40 0 70 35l60 70q20 23 20 60v40H35V145q0-25 10-25" fill="url(#v)"/><rect x="70" y="150" width="250" height="135" rx="16" fill="#fff"/><path d="M392 160h53l53 65H392z" fill="#dff2fb"/><circle cx="145" cy="330" r="52" fill="#2b2630"/><circle cx="145" cy="330" r="24" fill="#d9d4d7"/><circle cx="440" cy="330" r="52" fill="#2b2630"/><circle cx="440" cy="330" r="24" fill="#d9d4d7"/><g transform="translate(125 170)"><ellipse rx="34" ry="70" fill="#f15b91" transform="translate(0 -32)"/><ellipse rx="34" ry="70" fill="#ff91b9" transform="rotate(72) translate(0 -32)"/><ellipse rx="34" ry="70" fill="#e72f75" transform="rotate(144) translate(0 -32)"/><ellipse rx="34" ry="70" fill="#ffb1cd" transform="rotate(216) translate(0 -32)"/><ellipse rx="34" ry="70" fill="#dc1f66" transform="rotate(288) translate(0 -32)"/><circle r="29" fill="#ffd769"/></g><text x="205" y="235" font-family="Arial" font-size="34" font-weight="700" fill="#2b1d24">FULAWALA</text></g></svg>
