<svg xmlns="http://www.w3.org/2000/svg" viewBox="0 0 800 650"><defs><linearGradient id="b" x1="0" y1="0" x2="1" y2="1"><stop stop-color="#2a1821"/><stop offset="1" stop-color="#6a2b4b"/></linearGradient><linearGradient id="g" x1="0" y1="0" x2="1" y2="1"><stop stop-color="#ffe29a"/><stop offset="1" stop-color="#d99a38"/></linearGradient></defs><rect width="800" height="650" rx="40" fill="url(#b)"/><circle cx="400" cy="320" r="245" fill="none" stroke="url(#g)" stroke-width="10"/><circle cx="400" cy="320" r="205" fill="none" stroke="#fff" stroke-opacity=".16"/><g fill="#f35a92"><circle cx="186" cy="230" r="42"/><circle cx="224" cy="180" r="35"/><circle cx="282" cy="152" r="38"/><circle cx="614" cy="230" r="42"/><circle cx="576" cy="180" r="35"/><circle cx="518" cy="152" r="38"/></g><g fill="#ffb5d0"><circle cx="170" cy="285" r="30"/><circle cx="630" cy="285" r="30"/><circle cx="326" cy="137" r="28"/><circle cx="474" cy="137" r="28"/></g><path d="M245 500q155-135 310 0" fill="none" stroke="#f6d089" stroke-width="8"/><rect x="245" y="498" width="310" height="26" rx="13" fill="url(#g)"/><path d="M320 495l-25 90M480 495l25 90" stroke="#d7a552" stroke-width="12"/><g fill="#fff"><circle cx="400" cy="270" r="68"/><circle cx="355" cy="320" r="58"/><circle cx="445" cy="320" r="58"/></g><g fill="#f34d88"><circle cx="400" cy="270" r="23"/><circle cx="355" cy="320" r="20"/><circle cx="445" cy="320" r="20"/></g></svg>
